# xmcd CD database file
#
# Track frame offsets:
#	150
#	30347
#	68800
#	90900
#	115587
#	138832
#	148787
#	160740
#	182170
#	194665
#	216565
#	233875
#	246490
#	272325
#	293277
#
# Disc length: 4317 seconds
#
# Revision: 0
# Processed by: cddbd v1.4PL0 Copyright (c) Steve Scherf et al.
# Submitted via: Feurio! 1.63 - http://www.feurio.com
#
DISCID=d210db0f
DTITLE=Texas Bluesmen Revue - Live In Berlin - European Tour 1995
DYEAR=1995
DGENRE=Bluesrock
TTITLE0=Rock Me
TTITLE1=Blues With A Feeling
TTITLE2=The Hustler
TTITLE3=Mojo Backfired
TTITLE4=Blue Monday
TTITLE5=Kansas City
TTITLE6=Mardi Gras
TTITLE7=Curlys Blues
TTITLE8=Trouble Trouble
TTITLE9=Dust My Broom
TTITLE10=I Want My Love
TTITLE11=Why You Treat Me So Wrong
TTITLE12=I Want Your Love
TTITLE13=One Love, One Kiss
TTITLE14=Topcat Shuffle
EXTD=
EXTT0=
EXTT1=
EXTT2=
EXTT3=
EXTT4=
EXTT5=
EXTT6=
EXTT7=
EXTT8=
EXTT9=
EXTT10=
EXTT11=
EXTT12=
EXTT13=
EXTT14=
PLAYORDER=
